<mxfile host="Electron" agent="Mozilla/5.0 (Windows NT 10.0; Win64; x64) AppleWebKit/537.36 (KHTML, like Gecko) draw.io/24.7.5 Chrome/126.0.6478.183 Electron/31.3.0 Safari/537.36" version="24.7.5">
  <diagram name="第 1 页" id="kgTEWTRfTUAQH6C6kBg8">
    <mxGraphModel dx="1109" dy="829" grid="1" gridSize="10" guides="1" tooltips="1" connect="1" arrows="1" fold="1" page="1" pageScale="1" pageWidth="827" pageHeight="1169" math="0" shadow="0">
      <root>
        <mxCell id="0" />
        <mxCell id="1" parent="0" />
        <mxCell id="aOvd2PtyTL2-4zrxU_VH-4" style="edgeStyle=orthogonalEdgeStyle;rounded=0;orthogonalLoop=1;jettySize=auto;html=1;exitX=1;exitY=0.5;exitDx=0;exitDy=0;entryX=0;entryY=0.5;entryDx=0;entryDy=0;endArrow=none;endFill=0;" edge="1" parent="1" source="aOvd2PtyTL2-4zrxU_VH-2" target="aOvd2PtyTL2-4zrxU_VH-3">
          <mxGeometry relative="1" as="geometry" />
        </mxCell>
        <mxCell id="aOvd2PtyTL2-4zrxU_VH-29" value="&lt;font style=&quot;font-size: 20px;&quot;&gt;1&lt;/font&gt;" style="edgeLabel;html=1;align=center;verticalAlign=middle;resizable=0;points=[];" vertex="1" connectable="0" parent="aOvd2PtyTL2-4zrxU_VH-4">
          <mxGeometry x="-0.0064" relative="1" as="geometry">
            <mxPoint as="offset" />
          </mxGeometry>
        </mxCell>
        <mxCell id="aOvd2PtyTL2-4zrxU_VH-17" style="edgeStyle=orthogonalEdgeStyle;rounded=0;orthogonalLoop=1;jettySize=auto;html=1;exitX=0.5;exitY=1;exitDx=0;exitDy=0;entryX=0.5;entryY=0;entryDx=0;entryDy=0;endArrow=none;endFill=0;" edge="1" parent="1" source="aOvd2PtyTL2-4zrxU_VH-2" target="aOvd2PtyTL2-4zrxU_VH-16">
          <mxGeometry relative="1" as="geometry" />
        </mxCell>
        <mxCell id="aOvd2PtyTL2-4zrxU_VH-30" value="&lt;font style=&quot;font-size: 20px;&quot;&gt;2&lt;/font&gt;" style="edgeLabel;html=1;align=center;verticalAlign=middle;resizable=0;points=[];" vertex="1" connectable="0" parent="aOvd2PtyTL2-4zrxU_VH-17">
          <mxGeometry x="-0.0384" y="-1" relative="1" as="geometry">
            <mxPoint as="offset" />
          </mxGeometry>
        </mxCell>
        <mxCell id="aOvd2PtyTL2-4zrxU_VH-2" value="&lt;font color=&quot;#00cc00&quot; style=&quot;font-size: 18px;&quot;&gt;1&lt;/font&gt;" style="ellipse;whiteSpace=wrap;html=1;aspect=fixed;" vertex="1" parent="1">
          <mxGeometry x="250" y="220" width="40" height="40" as="geometry" />
        </mxCell>
        <mxCell id="aOvd2PtyTL2-4zrxU_VH-27" style="rounded=0;orthogonalLoop=1;jettySize=auto;html=1;exitX=0;exitY=1;exitDx=0;exitDy=0;entryX=1;entryY=0;entryDx=0;entryDy=0;endArrow=none;endFill=0;" edge="1" parent="1" source="aOvd2PtyTL2-4zrxU_VH-3" target="aOvd2PtyTL2-4zrxU_VH-16">
          <mxGeometry relative="1" as="geometry" />
        </mxCell>
        <mxCell id="aOvd2PtyTL2-4zrxU_VH-32" value="&lt;font style=&quot;font-size: 20px;&quot;&gt;5&lt;/font&gt;" style="edgeLabel;html=1;align=center;verticalAlign=middle;resizable=0;points=[];" vertex="1" connectable="0" parent="aOvd2PtyTL2-4zrxU_VH-27">
          <mxGeometry x="-0.006" y="-2" relative="1" as="geometry">
            <mxPoint as="offset" />
          </mxGeometry>
        </mxCell>
        <mxCell id="aOvd2PtyTL2-4zrxU_VH-28" style="edgeStyle=orthogonalEdgeStyle;rounded=0;orthogonalLoop=1;jettySize=auto;html=1;exitX=0.5;exitY=1;exitDx=0;exitDy=0;endArrow=none;endFill=0;" edge="1" parent="1" source="aOvd2PtyTL2-4zrxU_VH-3" target="aOvd2PtyTL2-4zrxU_VH-19">
          <mxGeometry relative="1" as="geometry" />
        </mxCell>
        <mxCell id="aOvd2PtyTL2-4zrxU_VH-31" value="&lt;font style=&quot;font-size: 20px;&quot;&gt;4&lt;/font&gt;" style="edgeLabel;html=1;align=center;verticalAlign=middle;resizable=0;points=[];" vertex="1" connectable="0" parent="aOvd2PtyTL2-4zrxU_VH-28">
          <mxGeometry x="-0.0035" relative="1" as="geometry">
            <mxPoint as="offset" />
          </mxGeometry>
        </mxCell>
        <mxCell id="aOvd2PtyTL2-4zrxU_VH-3" value="&lt;font color=&quot;#00cc00&quot; style=&quot;font-size: 18px;&quot;&gt;2&lt;/font&gt;" style="ellipse;whiteSpace=wrap;html=1;aspect=fixed;" vertex="1" parent="1">
          <mxGeometry x="489" y="220" width="40" height="40" as="geometry" />
        </mxCell>
        <mxCell id="aOvd2PtyTL2-4zrxU_VH-20" style="edgeStyle=orthogonalEdgeStyle;rounded=0;orthogonalLoop=1;jettySize=auto;html=1;exitX=1;exitY=0.5;exitDx=0;exitDy=0;entryX=0;entryY=0.5;entryDx=0;entryDy=0;endArrow=none;endFill=0;" edge="1" parent="1" source="aOvd2PtyTL2-4zrxU_VH-16" target="aOvd2PtyTL2-4zrxU_VH-19">
          <mxGeometry relative="1" as="geometry" />
        </mxCell>
        <mxCell id="aOvd2PtyTL2-4zrxU_VH-21" value="&lt;font style=&quot;font-size: 20px;&quot;&gt;3&lt;/font&gt;" style="edgeLabel;html=1;align=center;verticalAlign=middle;resizable=0;points=[];" vertex="1" connectable="0" parent="aOvd2PtyTL2-4zrxU_VH-20">
          <mxGeometry x="-0.041" y="-1" relative="1" as="geometry">
            <mxPoint as="offset" />
          </mxGeometry>
        </mxCell>
        <mxCell id="aOvd2PtyTL2-4zrxU_VH-16" value="&lt;font color=&quot;#00cc00&quot; style=&quot;font-size: 18px;&quot;&gt;3&lt;/font&gt;" style="ellipse;whiteSpace=wrap;html=1;aspect=fixed;" vertex="1" parent="1">
          <mxGeometry x="250" y="410" width="40" height="40" as="geometry" />
        </mxCell>
        <mxCell id="aOvd2PtyTL2-4zrxU_VH-34" style="rounded=0;orthogonalLoop=1;jettySize=auto;html=1;exitX=1;exitY=0;exitDx=0;exitDy=0;entryX=0;entryY=1;entryDx=0;entryDy=0;endArrow=none;endFill=0;" edge="1" parent="1" source="aOvd2PtyTL2-4zrxU_VH-19" target="aOvd2PtyTL2-4zrxU_VH-33">
          <mxGeometry relative="1" as="geometry" />
        </mxCell>
        <mxCell id="aOvd2PtyTL2-4zrxU_VH-35" value="&lt;font style=&quot;font-size: 20px;&quot;&gt;6&lt;/font&gt;" style="edgeLabel;html=1;align=center;verticalAlign=middle;resizable=0;points=[];" vertex="1" connectable="0" parent="aOvd2PtyTL2-4zrxU_VH-34">
          <mxGeometry x="0.0608" y="-1" relative="1" as="geometry">
            <mxPoint as="offset" />
          </mxGeometry>
        </mxCell>
        <mxCell id="aOvd2PtyTL2-4zrxU_VH-19" value="&lt;font color=&quot;#00cc00&quot; style=&quot;font-size: 18px;&quot;&gt;4&lt;/font&gt;" style="ellipse;whiteSpace=wrap;html=1;aspect=fixed;" vertex="1" parent="1">
          <mxGeometry x="490" y="410" width="40" height="40" as="geometry" />
        </mxCell>
        <mxCell id="aOvd2PtyTL2-4zrxU_VH-33" value="&lt;font color=&quot;#00cc00&quot; style=&quot;font-size: 18px;&quot;&gt;5&lt;/font&gt;" style="ellipse;whiteSpace=wrap;html=1;aspect=fixed;" vertex="1" parent="1">
          <mxGeometry x="640" y="220" width="40" height="40" as="geometry" />
        </mxCell>
        <mxCell id="aOvd2PtyTL2-4zrxU_VH-37" value="" style="shape=image;verticalLabelPosition=bottom;labelBackgroundColor=default;verticalAlign=top;aspect=fixed;imageAspect=0;image=data:image/png,iVBORw0KGgoAAAANSUhEUgAAAigAAAISCAIAAABpjqMZAAAgAElEQVR4Ae29vbKlsHL+zWU4dKIqh74Agn94UjKHU0XiCyB3RDk8CVW+AIITulbkkBtYuYvoZJwLWIFD3ndGM721uwUIfSxY0rODGWAJgX5q9dP6AKoVfyAAAiAAAiDwRgLVG6+FS4EACIAACIDACuGBEYAACIAACLyVAITnrbhxMRAAARAAAQgPbAAEQAAEQOCtBCA8b8WNi4EACIAACEB4YAMgAAIgAAJvJQDheStuXAwEQAAEQADCAxsAARAAARB4KwEIz1tx42IgAAIgAAIQHtgACIAACIDAWwlAeN6KGxcDARAAARCA8MAGQAAEQAAE3koAwvNW3LgYCIAACIAAhAc2AAIgAAIg8FYCEJ634sbFQAAEQAAEIDywARAAARAAgbcSgPC8FTcuBgIgAAIgAOGBDYAACIAACLyVAITnrbhxMRAAARAAAR/h+X+x//7rv/7r//7v/1AZIAACIAACKQj8/e9///d///e4nvs///M/vW/VR3iqBH9/+9vfvMuAE0EABEAABHYI/OUvf4nutn/8+LFzxf2f7iI8f/3rX/dvFL+CAAiAAAj4EfjXf/1XCA8n8G//9m//+Mc//IDiLBAAARAAgX0C//M///Mv//Iv3POG7V/W4wm58D6mwF+fz2ff9/X3v67rxnEMzDnv08dxrOu6aZq8i3m2dNM0SXNqmqbv+2mazuaWd/ppmrquq7//AZSs9A8F9fe//53UKsT/Bw21hVxY1kSUI33fK6UIjdxQSjVNA38haXddR7iez6dMUNqRZVnatt03p6qqtEUVHtO4sFJKtW27LEtphmSW99NBQXjM2vy5PQwD8xFKqfrPH/upqiq0ASK4LEvTNKQ6VVVBeA4jGBOX3q7r+vF4ENVyNrquY+1rp+kppfq+LweOWdIMQEF4zApdmd9USg3D8C3Fuk7TJJMV3vVZlkU2hsKFZ1mWuq5NXVFKdV2nx4vGcez7vmka5mopfdu2zPAy3n0+n4xVXdey86eHcAlRVVV1XRfV9ckGFITnqzkz02/b9vV6ff38fWscR+YyZDv5fkaGezQHxlCQayi2x/N8Pk0mO6OyesyEiJkbdV1naDSiSIxVVVX7XRlzLFcPURZiZjmBgvD8bgdSdUQD4QekHeTd72nbtv7zp379mV7Sul2IR2CW8Xq9TNWRnWaWfl3Xx+NhnkIws9eeZVlYwV0CuHEcCZHWnp0YUdL+xCOZgYLw/DRCFkO5t/aiGgDTZtbyrb+WKTw0EquUcp+tmabJRErbeY+5MbPpus5RFdq2JURVVWW/hDIzUBCedZ5nM+ZSSs3z7Gj968qnhTJ2E8z0daenruthGJZleT6fpiPQ2wUKzzAMxMEleDctre97OtfccOkzmfl8yrbJSk/YnLpzs9lWVXWW9qlrXZs4P1AQnlDlkIFqrgNuwzD0v/7GcXw+n2xSF8KjfRN5w/2Jii1HxtRdy49Saiv9Rx8nVrqYZ5WD6XSulNZ1zQ9U6cITRTaYWWTf67c6OwiPXosfKBVs8Jb6PX4yZq2pmxwMlw057ZEfpXVdswRVuvDQcHyIv2DDzUop1hu4SVNPehsQnnVdqb/Stq33MCOLY0IsM2mNB2bOiuk+sWpel2WSZaeHlTEPUEULj4yY/AyXjcDqp0rN5lHCNoTHak4eMTgLhqjTk9MQruzY+U2OSlZnx+tu3jZzBVW08LDFbN5rY6TP9ROwm7eB/duTEEp7gFQO22rNOOtSZRyj8/HQsP0qu/BX6hqSrPotoGDDUN5N+EIU+5fOFVTRwiMr1btts+5wVVU5xaf7bUP/CuGRTpC86ql1klaSHou+XGrtqjSyvfiNTEpWmcV8uYIqV3jkwEjIikxpH+5PJFzV+ONeV7qA0no8O8JzKqCxksxJeOTwkfe0qJVVNjFfxqDKFR7rwIhf2GXOKlOQ6zcHGFcM3pmb1QV483znnce6VizhkctntVFlE8vLIe6QosmY75TMx6r9FPlkDKpc4bG6CW9HKUftQtpSCiNOnSeEZ2tupqqqsxMY0pnqF8OkrsT35B+3sUhW2cR8GYMqV3hkpVZVdWos3mylMjfv0QMz2w/ahvBYB2+1YJxaXj/PM/WbzY1sQhkpFSFFi5vbrVpc3KLFzS0QFITnq2mHWL8UntJmOCA867rKd5Yrpc4u8LWSzGmOR3rAkD6KzC2kIQf607iny6JlA6pc4ZGVGmKv1oG7sx4nrtW+OTeru/QeunzzzUe83DzP+nuj+kOZHn3orSG7PJarWO0kxJ/KmC+PwYa8QUF44vR4rMKTzSSni1+2tpMChceF1X4a9iIMMtA8FmtZ7SSu8OQx2JA3qEKFxzocH73HA+GB8OxrjPVX2RfPaWWBXCIcOIooezx5CE/eoAoVHms0EV14inpbqBUphMcqLTsHrav8c3oJk3VsIHqP5+wywp0aueqnvEFBeGgko4ouPCHN6Spz974uhMcbnXmifPmYx7o4M8O7bb/Hn2Yw2JA3KAgPhCeOa4LwhHO0jgBXVZWBGyU4eftTKmb4Rt6gIDwQnvA28jMHCE84R+uygsz6zXn703AboBzyBlWo8FgrFUNtZPQeGxAeD2jmKdbZHaVUZvNk1rUAIeJqzTCDPqK1XNmAgvCgx2N6P/9tCI8/u19nWh1NBpPkDIu1mNn4U1bYkN28QUF4IDwhrePrXAjPF4vzW9Yu+NkP+Zy/7AVn5O1PIwLNGxSEB8ITp7FAeLw5WgfZslQd63vcUzzHg6E2aY1WJbsKVKHCY304C3M80ljdj0B43FmZKV+vl3xiNFfVWdc1+gKKW/lTs2YDt/MGVajwWL0khCekqViRZjYxHsJn61z54E7GqrOuq3VQEXM80jzyBgXhwVCbtHmfIxAeD2oyqs1bdSA87kYC4XFhVbkkYmnI5f/48YP9lHrX6iXR4wnBbkWKHs8OUvkW6jzeP71TZAjPPhzzVwiPSWNrG8LTk47SRgl+hAwCwkMoXDbkLGMhH9F4jz/N4E3eeYMqdKjN+ln7kB6P/Dp6Zm86OXSmEJ5DRJTg+XyaCwqUUhk4Sird/obVTqLP8WTQ1c4bFISH+idBLwnNdWnNvhMxf7W2kwzav1nGKNvzPDPVKYqS1U5ChMeESY05A6R5g4LwkK3+3PD4XqR2RlbhycD63V2ttZ0URcCRlWkqdV0vy+J4Yh7JrC9CDRlskMITktt9IOcNqlzhMds/iY+3o4yb232s3/1OIDwurEw7CQnzXa512zRxpSJubreCFrdocXMLBFWu8FhnZSIKTx5hl7t5QXgOWZmLp0+pzjAM/a+/w0t8RAJTfXXMF9JYpD89xfbOxDIGVa7wyMWsVVV5z/FK6w9pS3duDFv3BuHZIqOPe6sOLYTJxp/KZ2a9G4vV6rJ5FipjUOUKzzzPNMJGG95vLpLCk4317/tT+tXqArx7kJRtHhvm0lgP/dDWlc2X1K0xn5+pWK0um4XpGYMqV3gokCTVqarK78kbq4ZlY/2Ort/qAvy8ieMVPyWZ+ciOh+oQWO+o6G6grO3Fb7BBumalVDbrNTIGVbTwmKMfWn48/MK6rvLtwt5DB3fzEe73Q/7RFHIIT6DqmI/6+7lm9xp8Z0o5QuAnq3Km1q8Jv7Psp66VK6iihSeWYJgDKdrtZjMq4t5IIDySlfmgqLdJ0Ayz91p/eWOXH5FNxk8wCA6FO5l9Oi9XUEULj/XrIB7NW1p/TsGpo5OC8DBQpuqETPjpmDezPrR8SMWvgKxD4JcJq7hb7eYKqnThMUdCdNDkETEx6/eL3W5l7h43A+Fh0CgcCVEdss/8XKoc6D4b80mTC0HNqu8+u1mCKl14ZKfnrGyQa6DO/uPxuI/Vvu1OpBeoqqrYOR5SHf15zfrknzL+tF2dNcu31bv3hWQsf3ZpD/PIOS0rMKlmCQrCsz4eD9IMvXFqoMx0MVVVeQ/lm6b2idtywqxY4WEmwazLb9dv7v3mhsSWBpzq1Ul3nCUiXYP5gYLw/KxZFjq5R5dsNWeuMZeL/2IMtXvN2BdsMbFy8BMb86xcV+czkXYfK2Oc3dvsVsXd/HhmoCA8v+3No17N2WPtI3L1Dltt8vnrbxgG5gVMj9m27TAMOuVWPtkc3+FgMvHYznXQ0q8RyYDv7PzQx5lcZqAgPL8tUNbrfvD1eDzYmoLso3uNyJh9UGcdqHmuUiozZyrHbM/y2Up/agzq41yqnCXdX+DDVhiX8zWjnEBBeL7a6bIsrN9T17XsxCzLwgJbpZRM9pVvLlvW5QNbvtLleGbCwxyiCwHHNHkLj34Em4VxTdPIqdZpmtjry/ILX/a9xTRNeYCC8PCK7vueVa1Sqjb+2K91XWffzdeMZI+H9WDO7kJ4HIUn+wmMdV1lPFdVP7/NSC2Ptbuqqtq2fb1e2jjL+TcPUBAei8XqqpWGbroJpVTTNCV0dCyAcMhG4PV66ams6P8WEtnork/TNIdNr21b2R+y1Um2x3Tn73NBQXj2THOapr7v6+9/erY8mxcR7pUfv4HARQTGcey6rv7+13UdQj1WIR8KCsLD6hG7IAACIAACaQlAeNLyRe4gAAIgAAKMAISHAcEuCIAACIBAWgIQnrR8kTsIgAAIgAAjAOFhQLALAiAAAiCQlgCEJy1f5A4CIAACIMAIQHgYEOyCAAiAAAikJQDhScsXuYMACIAACDACEB4GBLsgAAIgAAJpCUB40vJF7iAAAiAAAowAhIcBwS4IgAAIgEBaAhCetHyROwiAAAiAACMA4WFAsAsCIAACIJCWAIQnLV/kDgIgAAIgwAhAeBgQ7IIACIAACKQlAOFJyxe5gwAIgAAIMAIQHgYEuyAAAiAAAmkJQHjS8kXuIAACIAACjACEhwHBLgiAAAiAQFoCEJ60fJE7CIAACIAAIwDhYUCwCwIgAAIgkJYAhCctX+QOAiAAAiDACEB4GBDsggAIgAAIpCUA4UnLF7mDAAiAAAgwAhAeBgS7IAACIAACaQlAeNLyRe4gAAIgAAKMAISHAcEuCIAACIBAWgIQnrR8kTsIgAAIgAAjAOFhQLALAiAAAiCQlgCEJy1f5A4CIAACIMAIQHgYEOyCAAiAAAikJQDhScsXuYMACIAACDACEB4GBLsgAAIgAAJpCUB40vJF7iAAAiAAAowAhIcBwS4IgAAIgEBaAhCetHyROwiAAAiAACMA4WFAsAsCIAACIJCWAIQnLV/kDgIgAAIgwAhAeBgQ7IIACIAACKQlAOFJyxe5gwAIgAAIMAIQHgYEuyAAAiAAAmkJQHjS8kXuIAACIAACjACEhwHBLgiAAAiAQFoCEJ60fJE7CIAACIAAIwDhYUCwCwIgAAIgkJYAhCctX+QOAiAAAiDACEB4GBDsggAIgAAIpCUA4UnLF7mDAAiAAAgwAhAeBgS7IAACIAACaQlAeNLyRe4gAAIgAAKMAISHAcEuCIAACIBAWgIQnrR8kTsIgEAKAsuy9L/+UmSOPFMTgPCcIDzPc9/3wzCcOKeYpM/nUzsC+neapmVZigHAC9r3/TRN/OiZfe1bH4/HmZNKSVvXdfXrr+/7Usq8Uc5pmqjR6Y3n87mR9i6HITyuNfF4PJRS2tbvX6+upQpON01T0zRERvOhf5VSdV0XKNXDMGgISqm+7+d5PkV6HEeiWtf1qXNLSNx1HdlYscIzjmNd1ztNr2macRzvaQ8QHqd66fueDL2qKgjPuq7zPDdNY2Kpqkr9+ZPHi5IfZjCaTNu2wzA8n0/ZEXw+n9M0dV0nXUnXdU42WkyiaZpM6ypQeB6PB3X4CMWflvc7OKbjdV0H9rxTWBaE54DqNE2yjiE8fd+zUKtpGtO+n89n13UsTV3Xr9frgHgWP0vhIUdgyvOWs6DE6O5Ic2DtsTThaduWzIMCGtMjTdPUti1rem3bSpIXHoHw2OFb/SbVt1nN9vOzPspMfz+kYomVUiXQ2xceMqT9DaiObEYSbFHCw0S3aRrZe9bQlmVhiW9lThCedRgGmpqrf/2xYEF6hxJcp2zz+ggTEhdrHsfRZKiU2motWxf9uOPSP5oEXLZdwH4clsAbnudZts1yhIcJiUsnxqO1BtaR4+kQnpVVJ3MK0tBLnuOREuI4dGbOBldVlb1XDRQeF5/i2MJzSmZtqoUID5OQpmkca5ZBu8mUIYTHLjxKKb0m5Pl8MikqVnherxeT4VMrfVkDyNtfeAtPXdenqDp6nwySbSHN25B0xbH1FKfGDJZlYc3WnIu9yjAgPGvbtvWvv7Zt+74fx9Fc/ArhIdP0jrl0DrK3lPGA25aXlEEMHdELr4k2NkwC1kE2ja4E4QkM2ljLvcN4A4THNG/LNoRHQ5Fxk8cjAizyynhAiYRHd5316jXSGNrQx9u2vUMQarH+2xxinpcAVlWVvfCER2zzPJvEqqryaLxxbQHCc8ATwqMBsaDpVGefELPnfpRS9FNmGyQ8ZnT5FH+ZlTpRcehpXHqo1nSj2QsPE12/VsNiPtMsE9XafrYQnn0+K4RHA2KG62f95I7JceTqNaikl7fwA/u+/c/U1VZKyVnG7Hs8bHanqir3ZQVm3TL1qqrq2k42hMesHcs2hGddf644J6nQG37+VML0EzBLPd3sEIQnVoVQL1mvuWABUPbCQ8WnBugXq5FBUj7XDnRDeA4aiPSVBa5qk+GSn/Wv6yodh7mU46AyPudnaud+Cv05BU17pxTxkJeU9uNtimlvPVLusrx+DxHKntO1MR+E58BAIDxWtfB+8ZpsSFk6DgjPQbty+NkcZKMFkIXYj8Yj1aKqKr9A7W5+DMJz0ALuVmEHt5vg57gEZOcpyz4BhCfcEmmUyYxyihIesiIaHwvpptwKHYTnoIHEdbsHF7vlz9L6QwYbpfCEtKVbAvt5UwQtS1l9A/bH46G9LZtLv5X3TM0hbmOR6Bjb1MUx84fwmDQs2xAeCjwp7ILwWAzl+yEIz3ce5/Zo9ZpctS+9Z5ZDtZqXLGxIlCZzuzAqgvAcNAkIT9ywS+YWImMHlXfdzxCeEPb00Jg5yKYzlN6zKOEJkQqJLkTGQup3XVcIzwFACE9ce2VvC9W9qGsfKTiwAK+fITxe2H6etDXIpjOU1pir8MjXDQS+XVfGfBCeH95mmvpECI9s6iH2Sh7ZHLjLz3dQMVmIOs9z3/dN0+gvjepX5tR1jbfm6Ia8M8hWmvBYPQ8zp1PeTwrPhYMN6PEc1J21+v2W0h9c6a4/Q3g8akYKzziO1pZvCjDeE0qDbFuxiLTGrZQetXarU6xrqSE8rI4qtu+yS03uxw/0eFyAXZDGqrvRezz0eOAFJUxzSVN4lmVhCzSUUnVdN03T973u+lBb0MMpZX4ZgVztjnstR3jIhJhteBusNe656m2h6PEc1KPV85bT47EWP7rw7Diag+q568/kNcz3Uiuluq6zPgBI6cnL3OSDXe8ErD2jUsqKSN8JhMe7RqzCc1V/EcJzUI9WzwvhOaC2/bP0sIFTptuXuvIXWcy2bfe/1srefl9VVX4dwZ0qoVUn+64QwrPDcP8nCM9vPhTcYaht32Iu/NWqu+jxHNYIEx7HAQ12Vjna4zLIpplDeA5tbysBhOc3GQjPlonc5zi9pZEqq6oqCM9hBZkSIh9G2TldeodTp+/kfOefdKn3B9n0/ZcjPGxeUDfAkEFpaVoXvtsbQ20H7dEa8pcz1GY6UNIeCM+B0RivzDk7XCYH3OTT+4dX/6wENMjmMq1VjvBYdQLCw2wbq9oYkEx2ITx+FTnPc/3rj16r7J6P9K1n1cv9WpennOdZl9fRpUo4+3NClxfQ+wYgPC7oIDwulD4vDYTn/XVGPQCzi+khYO+/c48rknt1fHsFhMcDsj6FUJNdYagNz/F4m1PaEzHHk5avLXeaaTcdhMswlC2zWx+jsMa9dOUID+Z4XGwXPR4XSp+XxjrFhTmepBUZnXnSu/XO/Owgm75QOcJDqmzGH44DktZKQY/nNxYCiuXUVkO5w8HoTjB6c7oDpej3IN2r96cno99brAzJDzoOsunrSjK5zvFEbykEnBwvhtow1BarOUfOB8ITGahbdtK9VlWV07pq8qpn101IMhAeN5taITy/QZHwosfjaDrvT/Ye4Tnrfd7P4c1XlO41p4dJl2XRBVRK7b/NQWKXZCA8kpL1iFV4HB9ttmYYchDP8RzQs3recp7jWddVNvXoczy5+o4D29r+WTLP6cVCNG3u8S5USSZX47GuMYk+x3OVK4PwbLf+X79AeGRTDxEea9iVme+Ypqnv+2EYvNdAS+aBL4w4sPI3/kzrJP26uZJMZsZDVWH1PCHCI9HhezyY4yF7u92GtNeQZ+mtwnNqevl2gIwb0s+N0hiy9/d1JPM8hCdkkE1jlmRyFR7rF0hDYj6JLiQ3w+p9NtHjOaBmjTuu6p8e3Guan61S4U0gbm5pSuyfq2zbVVV5DKNb87nQTfgT+X4mrSnQOqq/GXHqXxJ12tg6PQNBkmYQYgNxc/tesaf3IDwHyCA89FFIauohPXQpPCFt6aDy3vszDSKZoPzmZqSP8MvnvQCOr2YKD6MUfRfCw+pDGlXIwB3L/OwuhOeAGITH6iy8ezzS+rMRHisovyEySQnCc1aZMhCeiFGadeCuaZoD95fsZwjPAVoIj5WAd6uWLvVC6z+o+5M/pxYe9/fKnLzx9yV/vV7PgD/56u6qqrqus2Z5dqH2+yg4X8lqUX4xn7UVX/hkGITnwAqsFeZX9wdXuvHPUi38hIfmls3o9ULrj4vc6iaqqjqrrFaT85srilvAy3OzkvEzxcvL4nID1vL6OR+rZu98Ytzl9kLSQHgO6EWs+4Mr3fhnevCCBMNvdFjCDFkgdzdg1rbt8nEzVhBJSY/XeS/OZvl/7q6VTMbCY32Kzq+8Miq6dogbwnPQDK227hd0HFzpxj9Ll+pntdL6/QTsnqjMYXS91KppGo+gUlLy6DbdE1HgXVkbo58jDryTt50ul/ac7UDrW5XTRdeO3EJ4DkzIauulCY+MvPx6KrLn5LHU+KDCLv1Zj0l6vAnGvGtJCeNsmo+1MeYtPGY0o8cb/GI+Nlru135NKw3chvAcALTaeoHCI8NwD82Q1n9A/9N+pm+4hXhDRimP9WxRatLaGENQR7mr1JmwQMRDM6R6+XWbIpYUwnMA02rrBQqP7PSctV357qn8XAatnvDu9EiBr6oqmzc7HDS2o5+tjTE/K2IYZMM5ux5HGtXlFgXhYbXMd622XqbwMPM9G3mx0eqcZndMo6FieryL7PV6ye6ORz7m/eS0bW2M2QvPuq6s03O27TCjuoNFQXgOGiYNntCCrpIH3NkUpbsFy6jt8pjroOJ9fzbFw52PvhqJFhnbWRfje9efcR4LfTSls5A/o6jf75J60mQY7p0eBs27L/79jkL3IDybBOd5HseRBQu64pVS4zh6LFjavNiH/ECfKz7VAExfrE+8dkVNatiPx4P4uLtFqToeS7FTF+3C/B+Px05jvPDG3nNptrJUKeUy7iIDPo9PUaQoIIRn1W8Uro0/vRaWfMfOhk5pnPpzM29BYg3gsP+3LIt3P2n92D+TUl3X+927ZVnYWIpeUODiWT6W0N6Nsybp0h5lS8yvGbLQ5FB7pmliUu3eT9qrnhi/QXhW68Dxjtgc/pS9v5CxZ9u21scbZZfRvQcQw7yvzMPUHv0gjlwHOM9z13XMO+CpnShNMstmKMfNtqa4WMrDAPHNTQXCA+HxMbl5nlmQrpRqmqb/8yf9qVLqPgGXT5nPnzNNE+vtmYG51Bv9hoLSKEmuEB7JhI48Hg9pVG3b/ml5fdu2zLQO+9yU+ds2IDw/UVtfMuh98G2Vd/mFxnFkbcDaHVRKbXWJLi/CG26g73vmCLYobUWvb7jJu13Cu/XRiXcrUdz7+XSjgvDEtYcSc9PjRXVd63De/LdpGjm+VCKjdR3HsWkaEw71frqu258EKpMYSn1IYJqmtm1l06vrum3bOxsVhOewcpEABEAABEAgJgEIT0yayAsEQAAEQOCQAITnEBESgAAIgAAIxCQA4YlJE3mBAAiAAAgcEoDwHCJCAhAAARAAgZgEIDwxaSIvEAABEACBQwIQnkNESAACIAACIBCTAIQnJk3kBQIgAAIgcEgAwnOICAlAAARAAARiEoDwxKSJvEAABEAABA4JQHgOESEBCIAACIBATAIQnpg0kRcIgAAIgMAhAQjPISIkAAEQAAEQiEkAwhOTJvICARAAARA4JADhOUSEBCAAAiAAAjEJQHhi0kReIAACIAAChwQgPIeIkAAEQAAEQCAmAQhPTJrICwRAAARA4JAAhOcQERKAAAiAAAjEJADhiUkTeYEACIAACBwSgPAcIkICEAABEACBmAQgPDFpIi8QAAEQAIFDAhCeQ0RIAAIgAAIgEJMAhCcmTeQFAiAAAiBwSADCc4gICUAABEAABGISgPDEpIm8QAAEQAAEDglAeA4RIQEIgAAIgEBMAhCemDSRFwiAAAiAwCEBCM8hIiQAARAAARCISQDCE5Mm8gIBEAABEDgkAOE5RIQEIAACIAACMQlAeGLSRF4gAAIgAAKHBCA8h4iQAARAAARAICYBCE9MmsgLBEAABEDgkACE5xAREoAACIAACMQkAOGJSRN5gQAIgAAIHBKA8BwiQgIQAAEQAIGYBCA8MWkiLxAAARAAgUMCEJ5DREgAAiAAAiAQkwCEJyZN5AUCIAACIHBIAMJziAgJQAAEQAAEYhKA8MSkibxAAARAAAQOCUB4DhEhAQiAAAiAQEwCEJ6YNJEXCIAACIDAIQEIzyEiJAABEAABEIhJAMITkybyAgEQAAEQOCQA4TlEhAQgAAIgAAIxCUB4YtJEXiAAAiAAAocEIDyHiJAABEAABEAgJgEIT0yayAsEQAAEQOCQAITnEBESgAAIgAAIxCQA4YlJE3mBAAiAAAgcEoDwHCJCAhAAARAAgQloWa0AACAASURBVJgEIDx2mvM8d11X17USf3Vdd103TZP9zKyPTtOklKrrehxHv4JO09S2rVKqaRq/HD73rHme+76XRlXXddu2ZVqUrM0tStrwim16EtS6rtM0Wd2U9lHzPFvPusNBCA+vhXEc67quHP6UUm3bLsvCs8h3v+97AqPFYxxHFwK6hSil6PS6rvPlxEs2TVPTNFT2rQ2lVN/3/ORi9tH03KvakVVIjOh+Mx4pITxf0OZ5tnoH3efZcRZd133lkvWWKTwERPPRYXtv/OlYTAf4lFhvKKWez2fWqH4X7vV6tW3Liq8DUo1K8qnr+vF4lACHyjhNE4v2dP+mNv7MqIWsqG3b1+tF+ZSwMc+zlZU2J+oAmSbXNM3dej8Qnt+2+ng8TMvWvZlpmrR/XJbl+XwOw8CqnGq3ruu7VW2KRmgVHoLgvuE9UpeiUOnyfD6fplFVVbXlAvq+ZynL6fqYRkXtzlopZkoytnKCmHVdx3FkdtJ1nRxyWJaFhTtKqVtFMxCenxY+jqNpx/ttXta9PreEBmBt+YTOcaNY1RmGwepP9UEZybZtu5M+j5+6riOzcRm41rOMdIreKKHpMTdVVZVSan9ekAXTVVXdp+lBeFYzLHW04GVZrF0fpVTe/Z5A4VFK3cf0kzru1+vFIlPHgjO72teqpEV4Q+YU8J2Kx+ksU36yb3rTNLHyugxWm85Na5XLWW+oegjPSk29rmvZad2qg2VZmGfRZpH3nHmI8BQyGqkNhk0WuvddpKfINZQhbT6lOla8JTQ95m3cI5JhGEzFuomDKl14qKfv2NcxdejxeJg1StsZrzXwEx6llHs7MQl/6DYzDKXUqQlwNjqf67pzano6Ej+1os/a6bnVUFJc0zVZ6ZnCU/lTbK191P5UwqmcvRMXLTxmr8VxJISBZoGtrlellHvPiWV4891TwhP4xM/NUezcHmvnZwMR0yy1RfkZ584d3uEnFsLrkjp2Ded51unZvzcJ5+PilfawP7Ujr850+g4OqmjhoTjC217ZwCs1A8f2I03k5kdIePS42TAMtGa6Nv66rnN8vufm5fW4PdbIq6ryGFVn0uVtnx73/55TtpSjqipHr2rVLaXUe+7/nVdhPWC/MjJclzuoooWHKqNpmr7vHS2e2RxlQqqjhw5Ysjx2TeHJo0TRS8E0w89NUEhERuVnnNFLFyvD5/NJRWMbjgNB1nZXVVVmU2Kyu+MXhUQxy1i1v65rucJjjbk8xtNZPEKtKMvhEQjPftuTPWA/NyG7TR6WuX+r1/6aTng8+pfXoti/OrU4cixnR251/tJNXTvtWq7wyLatq/asp9jKx88+9q3w8l+pGZyldPmdv+cGZPP2G9OQUZFfz+k9pfa4iiwgOVZHh2jt8dxh9sKDxs4psph+ES1b21ZV1bVNuFzhIR9KFk8bp4Y1tmK3a+t1x5RDfiJoWZYuhIw+V7oJx4EjeWmZlZ/HkTnf5Agb/NGtz105JJ/8hrjlOJvflOG6/nxakfzbWdQpDAbCw6rj5+4pZ7EVu2UWomrjg/DsNEKrJZwKYszMpWP16zyZed5tm2mP+wM90o3qZpxZPCS7Kd5exWqcF4YyEJ5Q4VnXVfqI/IIv7bMgPDu+2zro6j3lwJzy5WMjOwUP+Wkcx67r2rZ1HGHT17Kirqoqs/FtOXLrLTxWN3UhrnKFZ8t2PR5Dg/CEuJ5szpVL0bwHRtb164UaFBmFOJ1sIOuCSI+sQ73Mnp+TwUeIDUg3dWEHsVzhsYYAHj2VQnr9usGjx7Pjwa1uwtsVytzyWyu8A3P/J+lDq6rKbyhSFjOu8ITktl9Bh78WLTzP55M177quz46NQHgOjayQBMyWPIIYE5T1pRhnjdPMMJttuWY9y+6ONTIO6aPElbFAcypaeDS7cRzbX39+U23UCaAhEb1xaoVCYC2+7XQqrLUBzPM8TRN9Cu75fHrH+28rUcQLxW3YhNq0q1MTIRGLdqusrJKcX3OzRrTWdudYOzIwurAPDeFxrLXNZNZmcGGNbt5ojB/IG5oNQH/XWbpdHYfWdV2Iu5QEQoYyCLUpPPm517NWae3u5DfIZl0AHbjAxCo8V/WhITxnLZ+nl+4mcIyFX+BO++QNtfDILxZrLymZZP+CautyVQhPXOOlLymYYmzGQHEvd21uci01hEfWSCUPHR4h6/nx48dh4nsm2Foal2tkagqPuYhLKdU0zTAMz+dTvyzr+XzKzzmf+uLRPWt8666sAyPRhSdXJ7tF1Twuv9Ca5YICKjK1NfKTKYTnKk+FHg9VtM+GtfeasXeQjWH/Myqv14shUkpd1bv3qWDncyA8zqh8EsogJvs+tGxrEB5pOiX2eKzDzVVVPR4PCSiPI6wxOH5UtATtgfDEsvC+79u2rf/8qV9/ZtSvOzrZr1thbU0TCAlqWTPUGaLHE8tu35ePtSIze4swo2k2Bvc2MM8zm/VxfyUXu4Hb7lqjEAy1na0v08CY2NBuXdfeLyI6ez8XpjeHss2ye9+S1V9BeLx5XnOidXbn7EeOr7n1gKuSXzirHPJR88wUmsiQjwhcY2LN0F3sAyr5ylMfj4fu4sh/TbB60Cnv1ZJWnQgxAGuGEJ4rzf3sta2ra9w/nnj2cvdJTyttzj7zZH3P7tlM7sNB3olVJ9DjkaD8jizLMgwD6zdr+cl1ZNuqExAeZj9lzfHI+N3jDW+M4Kfsjr/+PO5WPvAU0oo8biDpKRCepHh15q/Xy9r0snyOB8LjYlEFCQ9F/WbfP6fg3aW+PdLkzQ3C42ESfqdYtSenIEZjgfC4mEcpwvN8PmV/H6rjYiLWdV/ZzPRgcYGLDcRKY3XK2diSpoTFBS7WUorwSIuH6rjYx7qu0Z/td7zue5JZZRVzPIngW2U+s+/xWPvQIR076bvOfvQyYm3iAdITMGXNQXVO4Nv4Yl4eS2MhPKcsITyxnDLUQ995mNO6rhAeFyPJv8fDRpbdP9Prgq+QNHKU8sKYKy5zCE9cnoe5WZ9nqKoqmwE3CM+hDazrmrnwsPHWXN/74lLTIWmswhMyehByM3HPjT6QaPU7Vz11EZdVrNys5pTNUw3WxTghjUUO2IR8ITewEjHUdgyQxVZ1Xb9er+PTkEIQsHqKkLYkrnDlAVm6kDke1sPW40gQHrOCJXBNKY/V1dY+dEhjseK66sWJEB7Tki3bj8fDXDYdUvGW3D/n0OPxqOtaP0/etq2f9FpNP8Q734qfLF1I0azxad7P6p+tTSuiwBdGnL2HdOnfIzz6XfLpSrGVM4Rni8zP42zxdB6R1F6BN36T0ffZV+bojKVrzsZNrOtq9YPeEWXc3DYq9uLD8zyHfKaWDYCbAeJV/jQuUNleQkKZuLkFlhTCswmQvdqyWNXZWrrqAUSaPoRny/6swpOHP13XVXegtVTojzl5FM06Dabz9Nb7req45LhsLxAeVhEZLi4wW/4pJ6tf6p736ho/wZANKfATI8wKr921+kFvD2iaHznoawsY6+ps0pRKd3YltBW4zu1sVrGKFjefuDYgW9+FEwfo8dhNxazyU6qz/nla5cJKtRfJ9+hW8/YIvqTp57T+1epPvZ/0kqyysShZNK0WZwu4ZZkXLtbybWT282INcetZAw3Z/LfrOvuF0x+F8FgYm/V9VnXoNcxnT7Tcxz0ObTXvs8JDZEzTz+Y5nnVdrQX0XocmvfOFbiKiJW6N3Oo+9KnPu21ZZjbCYw1l/PrQ1qUKF/YLITy8TYWozrqu1K68PQ6/oav3t5r32QJaTT8bH6FrSaqFX/xhZXWhm4hog1vmpMORU17VbKpmNOO38iViGWNlZQ1l/PrQEvvZwDFWoXQ+EJ5vPM11Mn4ug3I41YS+3cTNdqxO0AOONXy71vqjk6baJz94dvhI35JklQ0oWTRidVYwzPFwysRv9jG6JcTKUJbRr+MrRfraSWgIz5eFmE3ibDhPuWhDOduE6PR7buhAXinV//rzC72lU87srY7W0TY/wZCsPJT+nrZkjWO0bJwVadm/1Plkw2pdV9Mp+VHSZiAFzK/nFMuoIDy/SZoVHFIl5KNj1dAd8qEXMvpJji6CdBOZybMuJrGiGNyj7yvdhMdq4ztYjvUepCVoVqesyzoM5ZGP9Q5vdZDh8gtlomQSEQuE5ydM80FRj4fD9XNwz+eTAtWzsVvEGk2RFamyd/ecpr7IHefX3dHkZUk9xkaYm/DGnsIYwvOU2lzX9SnVWdfV+iqznBZJEmc5PXOWlbRJ7xEduqvADQjPN9XRA8T6xTDu/5rOVG9n5inMx/L9PnEvfY1f4BZo7u85nRX2bEmZS1VK5dTd0U+P6mailBqGwa90slOo8zzrlN9jEoFXYYHI2bFEZpB3CItLF57X68UqVaqIx5HLA4pAQ5en0zvrPN7MTeeaJP0ETN7YDY+wd15UVXVq8JYZpEeH6YZM2C2RK1RKebz3j7rgpkXl2oeW3btTY9Syu3OHple68GzFTcygz+5mGXbRwphT2mMOYxLG/ISZOVY2POLuKQiyZnWH4JQVLcquOUNzypzWdd0KFnNlpYGTVJ81DObizvaWolS3zKRo4WFVQm4xfMNv9EBWz92OEDGllEsUP00Ti9+rqrqJ6adm6+EpWCB/1iOnLlHc/M2IRCnl3rEjIzTbad6qY5Vbl3Z02zimXOFhI+mmEQdunx3Tj9ueU+dmNvumaXb6drTUwuTpsXYjdYnS5W+y0m+l24lIGC6l1A7bdPf8zpxN7dHTq23b7iCapokh1abl4oLfWa5E12K4dAy3NVD5er1k6HPqxRCJSqGzLVd42GCI6RwDt7MPvphB63B1GIbnr79hGJqmkR0dj5VLSU3/PZmzkFMpJX3rOI7Mn9Z17bEI+z0linuV1+vFEGkFapqm7/txHLVR9X3PEOlGqpcnxL2lO+f2er0YB/10nakoy7L0fc8a4N2WOxUtPO7r1k6lvFsdp2hIwzAwy95Ra902UtzGR+RpjdNNizLRnRp0+ojiu9zkNE0smjGZWLe1hJsO1+VCeaSRrc80J9Yw76nN5QpPHiZ4bSlkYGX6CKVUXddFja3tVMc4jtaOIBGToetObln+NM9z13XahxIWtqGNquu6MiXHrPdhGPRHgRkivatBuUzEmnm+bRvC8zbU2V5onudxHPXbdOjfQkaKPCr1+XwSJb0xjuPOxIbHJT79lGVZJKW+70M+V/rpTLbuf1mWaZqYRU3TdHNhhvBsVSiOgwAIgAAIJCEA4UmCFZmCAAiAAAhsEYDwbJHBcRAAARAAgSQEIDxJsCJTEAABEACBLQIQni0yOA4CIAACIJCEAIQnCVZkCgIgAAIgsEUAwrNFBsdBAARAAASSEIDwJMGKTEEABEAABLYIQHi2yOA4CIAACIBAEgIQniRYkSkIgAAIgMAWAQjPFhkcBwEQAAEQSEIAwpMEKzIFARAAARDYIgDh2SKD4yAAAiAAAkkIQHiSYEWmIAACIAACWwQgPFtkcBwEQAAEQCAJAQhPEqzIFARAAARAYIsAhGeLDI6DAAiAAAgkIQDhSYIVmYIACIAACGwRgPBskcFxEAABEACBJAQgPEmwIlMQAAEQAIEtAhCeLTI4DgIgAAIgkIQAhCcJVmQKAiAAAiCwRQDCs0UGx0EABEAABJIQgPAkwYpMQQAEQAAEtghAeLbI4DgIgAAIgEASAhCeJFiRKQiAAAiAwBYBCM8WGRwHARAAARBIQgDCkwQrMgUBEAABENgiAOHZIoPjIAACIAACSQhAeJJgRaYgAAIgAAJbBCA8W2RwHARAAARAIAkBCE8SrMgUBEAABEBgiwCEZ4sMjoMACIAACCQhAOFJghWZggAIgAAIbBGA8GyRwXEQAAEQAIEkBCA8SbAiUxAAARAAgS0CEJ4tMjgOAiAAAiCQhACEJwlWZAoCIAACILBFAMKzRQbHQQAEQAAEkhCA8CTBikxBAARAAAS2CEB4tsjgOAiAAAiAQBICEJ4kWJEpCIAACIDAFgEIzxYZHAcBEAABEEhCAMKTBCsyBQEQAAEQ2CIA4dkig+MgAAIgAAJJCEB4kmBFpiAAAiAAAlsEIDxbZHAcBEAABEAgCQEITxKsyBQEQAAEQGCLAIRniwyOgwAIgAAIJCEA4UmCFZmCAAiAAAhsEYDwbJHBcRAAARAAgSQEIDxJsCJTSWAYhr7v53mWP+EICIBAUQQgPAfV/Xw+++9/0zQty3JwGn7+TqBt2+rXX13X338pa2+e53EcvxtUD4uyGsE0TQzU8/m0psRBIiD91TiON/RXEB6qsm8b0zQ1TaOU0u6S/auUqut6GIZv52Bng8Dj8SCAZQrPNE1t226ZU1VV6tdf27bTNG1QLOXwOI51XW+xUko1TTOOYyk43Mo5juOhv7oVNAgPr9h5npumIUepN7RfkI1BKQX54QS/779eL5NbacKjIxhmTvu7TdOUKT+Px6OuawZnq+nVdV0mpe/Na7VCYwxpt67rm4x1Q3i+1WPf96aXrKqKeYHn89l1HUtT1/Xr9fqWEXb+EKBBNm39RQlP13XU5nW3pm3bcRyfxt8wDNLbVlXVtu0fhEX8z+xEKdW2rTm2Zu01lkbJNIXX6yVDZD0SY9jXcxgGszOklDKpmhm+cxvC80Wbmf5+SMUS36Q6vwpzj61pmkzPW1VVOcJjygkLX2TlMIkqTaRNVjra25qWWJaFJS7HokyzmaZJhr87XcBlWchlKaXMrC7ZhvD8xk614t7mx3E0vapSaqu1XFK1d7go8xHlCA+Zk1Jqxx2YddT3vWlO7nZoZvKJ28xIXDoxhLccSmbNMs/j2D9+Pp+kVX3fmxm+fxvC85M5q0illOPQGQtUywy+tqyWwSnHR5CEnB2DlSMnOvzfIpzBcSYhTdM4ForJVdd1jid+ejLmrKqqOlw1MI4jSY5uhpd3eiA8K5v9rqrq8Xi4WydrAJeHEu53njSlHGQrRHiWZaFG3jRN3/fu/eAtaIeeJWlVpsuclffUmIHJWZuWY88yXXHekLO5QFSX+tDhSFD6xGtXGUB4Vu+YS9sZC0BONZ43WOpVl2B6rG29hKE26u5QkZVSh96BqolEi07PGBozEndKGhdrudmPN8zzzMzDZVhSGqQ2rWuXGJQuPDIc8IguPayBHE2WG9ZBNm3u2XsH5kxJPxzj8a3Tr41PU1hpeMQ2zzPh1RsejTdF0RLlyWzDcUbAOn5bVRWEp/rx40eiqjrMlgVNfv0VVrWXj58eljppAorL6l9/zDVkLzwsCqHiO85eMOdCpzvqVtKajZs5K6lfq2G0M7Yu2XFxVFl5ojYqCM+VwsMM18/6ZdWeHTSI26SvzY0cyjRNtE0ONGPXoLEzizpbcElM55CZRbHZHe81FBJXfgq9rqscmHFvRxK1fqTsWi9R9FDbMAzkF/SGe3Wa1fZ8Plk+fgJm5vmh26TBepWR9At+hD+IBoTHpbLYIEFVVX7KSvZGDdBl2sPlDm+VRuI69cIUOa7j2FtKB6Fo4ZFu0c/613WV7ia/QflDKzQH2XRiSTh74ZFF1j7Rcb3v1unXDowcVv3ZBLK9+BVQhvP5xXxRyqjf+1DXddd17sssz1are/qihUda/6k4wqQss/LWMDPbz9omp0nr0ekIBaTZC4/5mB6V2nEe2BrB6ExyimOkJ62qyq+AcrDh8mnz6G2W9Ve8hyWj31hIhuUKT1yTLdDDMrOjQQ9zrKNMLPo9szoW0e8cc3weeUt4MoviyVRMYWbm5L6bd8wnZ3eqqvKOj92ppk5ZrvBI6w+JlaSHzcxZ7BsiNQ8W2kss2fd4TFBno3hrMOT4QhTzujffllYR0lik8DguILw5JX17ch46xE3dp8jlCo+crwup0bht6T724XgnBJMG2fSJEktRwuNIj5JZgyG/Jf6U5w03pFTEFZ6cbEy2oBBW9zGGcoUnbo3K3EJk7D724XInFJSZg2z6RIklJ6fgAudUGokrv+6OdTgxxCriytip+kqdmAYSaEzyDiuho5S6XOGJa6/WZ/WzfKSAmR21DTbIppNJTxriYtilM9u1Trnn192RrxsIfCeQtLE8+gTy5cVafrZakPkNnrNjvO9vShCer2AixF6tgyQlLGyjQTbrkwHSKWw1m/eb/t2uSCS/LNLhxcN3K8Xh/VjnsUKsQtpYNoMN1nCWsXo8HuZ33sh4lFL6o3CHNXJJAggP1dTP795710GZwkOv29qazpVOgTUbb+CZnUgkv8zR95nKm5OxduxCrELaWDbCYy2aycoarJgmpIfmbhgBFyo81rAruvDIOY+bO4VTt0efk9gZDpItx2w2py6XcWLroz83dBZRqsAaooVYhbQxl0/URClL6kzkdID5igcquFKq6zpzqK3rOnZuXde3Gn+D8HzFB9GFJ6Q5pbbp8PzpubadpwqobRDlvJl4UB2GgfkIpZR13NIj8xue8h7hyUC2afaU2o7e0EWjlrUT3VIL1ScqpfxeD5HCiiA8X9UK4XG3MPog1dYgm86KmgdRLlx4KCydpqnve8mnaZo7vNHE3RLOpoTwOBKzjsroHg+NsO2ojr7KbbUHwkMuMf4cT65O1mWQTdu9dKy5Mtn3Jjp6ZT2bL8v7tZV3R4f4QHgIxf7GlvBQmzpUHZ0/pdf2ppS6w5hbocJDj56YjR89nv2WQL9SGLUzyGY1+sCFs3QDH7ex5URM87vtPHBc2hStm2UPCUeYY9XZZjDUZl1vQtCsTy9Ya4pe3UvnhtC2XsLjYKHCYw27IDwuBkSDbC7mK52Cy1kut/FxaYZh6MWfnATW8uP4KuuPg7CuqzSJwHDEmmEGwmP1USQep2YBpdhfbmAQHqpKDLU5+THdzh077NIpFCs8O3Afj4cchVNKsfcP7eTwQT9Jk4DwWKtvR3jOhshyCbtj+7XeWJSDEB4IzwlDoifaHCNK6WUgPFbcr9dLsjLXzlrP+sSD1mKGWIU1Q0f7vDPAHeHx6K/IyGZ/WVBqMoUKD+Z4PAyL4iZ3NyGdgvu5Hnf40afQko2vUOjXluMc8qeUXQ77oMdjrTurj9K24fEuLtkSdx6/s95P3IOFCo91svdsB9asCWt4kpmT1bZ7qpMuzT0zJqYNhG+TtDPtOTWgH34bSXOI3lKkjeXRU7T6KO+XhFopHS4OSmcJEJ6vNg7h2bGzs4NsOitp7hCeHcjrulo7BKfEfj//y3+F8DhWwRuE58LGCOGB8Bw3BIrEz1oqhOcY7vcUhPrLLn9tXTsi//0eg/YgPI74toTnbBvUl6NHIEy7Cgm1HUuxlQzC81URIdVgbU7ZjM6TfpwdXKYTibJfs9ky3yyPy3lgTe8s/HvCsbaUEKuQNpbHu9qs34/wng+zYq+q6qqHSQsVHuvXqKILTwZLa9Z1JZP1WEsjnUKIi7mnJ41+VxKaFp48Oj3WLl2IVVhx3eelZCHmYQ1B/FhRK6YQUG9cBQrC81URIcJjtf4MhIcee/Yzd4nFL5+Q1vtx5275iBD7vA8E6whSiFVYvfNV/jQuZ2vR/FhtGdVVoCA834TH+/2M0sNWVZXB2AiVy68sdDpR9ms2cdvzzXOLu472boW1jiCFaKr0ziG53QqXbD7Rh9ogPO+ucWuleldD3NzezWLjemZwqrz+SG/MDWtOeYwjres6TVPbtnVdN03jtwzaxG5yy2OVcPRRbgjPRvP9dhg9ni8c1Kh+/PjxdfRdW9ZlHhGFJ4Owa8cDUt3F2sijJySNyuMDXDvYMxi8fYPw5GFL5vSq2cr8Sgfh+RIWonmJ8Fhrwlt4sgy7djwg1V2sDb/m9GVMN9iiR50Yk7NF28Husb7jBmD4LcjhAe8ozTpwl1PvmdkShtqYMVVs32WXmF4iPNbm7R1RSuHJw/rpw2V+GxJLXdfWrK5a1uliqI5pZGHJwk8FNFbL1Fl526djEd6TLGLMZ2V14QP5cQFaP0LqJ9LWqMgvqyhlLHdxgbXL79ewrfaRjfWH2Jn0xWfD/5Crv/Nca+hNwnPKrqzONCfhsRbwlDZTzVo/WpNBEEMFjNU7lPl4v32H7i1ko2jhka8n8XOLsiFd+wK+EIOIe245wiNtgFTn7KIAa4dA5+bnnePWaZTcpGGc0ma6B8nqwiie7irihrWAHotvrcJz4RPuRQuPDJf8rFYah5+ARbTXm2Ql/UvGZGRhSXtOCYZ1VOTa+DS6OclVGH5D09Kf5jENRsCtoymnzElnJUFd+36HooVHjrb59VRkz8lvHS1ZWzYb0hcXKDxni2z1EVVV+bnme9qSHJn0i/mYgfm133sioruS7sVjGJ+BujyOKV14ZGfFQzNYpfo1IbKznDYYGe81OR/BRDoIXd6zUw4Smu45+T3De1t0DJeHZkj1ykmbqeLkS4bOFtM6Duw3tkl3FbhRuvDITs/ZSpVmcW2NBhpE3NOlDz0b/se9n6S5mZZQ//rziEzl8K9WnbNmmbSkUTI3cekynsUlo8bMtJk4S5Gmn1w25MDm5c0QwvP1Ekxt/WcjL1apl9eoiyG+LU1RwmN+TcfbDKzjbDl9j8e0PeZPz0Jj1nXhVLlZqBTbUqTdo1vrLNHlCg3h+WknrLW7W7A0iMtrNIXd++Vp7eDnPQ5J71Stqsrdigjv1lvaznYFKMObb0if6F5S1t1RSr1er5uXN+T22JIT91iERcZVVd1h/QWE56cxmP7Cvdf/er1YzHWHGg0x7ojnzvPM5FyDvYndRywpy8ocK6vr2j0QeT6fzJw0MQ8BY7d0510Tl57xdlmyJQO+x+Nx52JGuTfWoFw6iAyvXzwU5eZZJhCe30BkDe2vMliWhdlB3g6C2Q3bbZqm/vOn3wFKMmPd0Gn+nPHzf/dQd739H7Oltm0P1xdM01Sg6uiaZCG5UmpfeySrnIxnx7plB7Gu651nemQH+j4zhRCer4p+PB6s8bdta63XcRxlyq+MyttiNKxis3/Qfcz6I+hKW9LiKl3qwyiVbgAAESRJREFUPM/M82pQSqn90OcjODjepBw327IHlvLah1EcSxcxmRxIUEr1fc/c1DRNbP7sPn0dTQPC880q5nlmFaaUapqm//PXdR1zskqpQgKub6S+7zAm+xpj/XXL0Xy/ziftvV6vtm0lGbO3J3/VcJqmYa7kk0ruda+Px4MNISil2rb90/J6CfPUSKbXTd30JBmpkFFZxxtuGMRAeCy2NY4jawNWX6kbRmkOwsJrXa3v/Tx1MNeZ4WVZpMe0mpOe4Wiaxn1ayFoXH32w7/stMTah6TD/o0saePPTNH20j4LwbBrAPM9d19V1rYMI81/vb3xtXgw/5E5gmqYtc6KvxiGI0VZAH9MzG51Sqq7rtm1LFmbWSvZ91DAMt7UoCA+rSuyCAAiAAAikJQDhScsXuYMACIAACDACEB4GBLsgAAIgAAJpCUB40vJF7iAAAiAAAowAhIcBwS4IgAAIgEBaAhCetHyROwiAAAiAACMA4WFAsAsCIAACIJCWAIQnLV/kDgIgAAIgwAhAeBgQ7IIACIAACKQlAOFJyxe5gwAIgAAIMAIQHgYEuyAAAiAAAmkJQHjS8kXuIAACIAACjACEhwHBLgiAAAiAQFoCEJ60fJE7CIAACIAAIwDhYUCwCwIgAAIgkJYAhCctX+QOAiAAAiDACEB4GBDsggAIgAAIpCUA4UnLF7mDAAiAAAgwAhAeBgS7IAACIAACaQlAeNLyRe4gAAIgAAKMAISHAcEuCIAACIBAWgIQnrR8kTsIgAAIgAAjAOFhQLALAiAAAiCQlgCEJy1f5A4CIAACIMAIQHgYEOyCAAiAAAikJQDhScsXuYMACIAACDACEB4GBLsgAAIgAAJpCUB40vJF7iAAAiAAAowAhIcBwS4IgAAIgEBaAhCetHyROwiAAAiAACMA4WFAsAsCIAACIJCWAIQnLV/kDgIgAAIgwAhAeBgQ7IIACIAACKQlAOFJyxe5gwAIgAAIMAIQHgYEuyAAAiAAAmkJQHjS8kXuIAACIAACjACEhwHBLgiAAAiAQFoCEJ60fJE7CIAACIAAIwDhYUCwCwIgAAIgkJYAhCctX+QOAiAAAiDACEB4GBDsggAIgAAIpCUA4UnLF7mDAAiAAAgwAhAeBgS7IAACIAACaQlAeNLyRe4gAAIgAAKMAISHAcEuCIAACIBAWgIQnrR8kTsIgAAIgAAjAOFhQLALAiAAAiCQlgCEJy1f5A4CIAACIMAIQHgYEOyCAAiAAAikJQDhScsXuYMACIAACDACEB4GBLsgAAIgAAJpCUB40vJF7iAAAiAAAowAhIcBsew+v/9ZUuDQLwLfOT1BZYsAQG2R2TnOoC3LspO4tJ8YnPsXH8KzWUfDMNR1rZSqvv+pX39d183zvHlyST8AlGNtA5QjKEq2LMs+tLZti1WgZVm6rtvyUXVdD8NwWzgQHjLyr42+76XefFef33tN05QsPwD1ZTS7WwC1i8fy47Isbdu6NEOlVNd1lizyPXQKTtu2r9frbjAgPN9qZJqmuq5NjdFmPU2T7sz2fW9N8C2XAnYAyrGSAcoRlJlM6rRSqmma3vhrmsaUpbquzRwy3h6GwSx4VVV1Xfd9rx3UNE1d17EESqlxHG/FBMLzVR3jODLJ6fv+62djS3qTpmmM3zPfBCjHCgYoR1CU7PV6NU3j2AzXdR3HkQLBErSnbVsG5/F4ED1zYxxHJj+36hdCeH5XlvQRz+fB9DgzghLsXjd1ZvoAZTZ42oZFEQrHjefzyXxlXdeHsxSv14vOultc71hwx2TS4eyPoS3LQqqs22zbto7XSp0MwvOTMLN4pdShM9UVw6Kz+9RrIrsBKEewAOUIipIxYlVVHbameZ7LGXAbhsEM+BzDXFOV9ek30WYIz0/LZ3HB1ggbNRLakPW61fOlUz56A6Acqw+gHEHpZPM8U6/FPTZnp1RVpZQ67CGdurGbJF6WhRV2mibHe5umyVSsmyCC8Kx935sV4xhKUK0Hnk753H8jsKSBp9+fD91hYEkDT6fb+KANptMubZD1AKgJO45VfBCcdV0DR1YCT0/BCsKzslBiGIazoFkO7h2msxe6Nj0rJkBtVQdAbZGxHmdTF0opl0cU2FkZCw/rslRV5cLHRC1zcO8wmflE3C5deFh06VGpcqROKRWxhm6SFUA5VgRAOYLSyR6PB2mG3nCM27quYyfq3fx6PKy/4udeWDB0+Src0oWH1YdfpUpfc5MZvFMuYD8xQO3zoV8BilC4bHjjYosGtercZALDpeCOaeZ5ZvrqMg4pM2eDmZeDKlp4pO36VarsyfrlI83lJkcAyrEiAMoRlE4mey2nnjVhzrSqqlOnn7rVqxLLEUXHHiG74UDULLfw3aKFh/VhvQ1Xrjm5PKAItwwzB4AyaexsA9QOHPZTlFaj33GglKrrOr9hhnXlM9BVVflNz8iQyG90h1Wi927RwsO6+VVV+UUTVvvwmHv3rsXUJwKUI2GAcgS1rquMwTMbJ3BHsZVSjrNVVeU3ifV8PtmQnd989tatnj1ervBYa8KvUq3Cc/n03VlT2EoPUFtk2HGAYkD2dyOK9P6FPvdXOXns3U2R/cuqqi4MjssVHutzAN7CI4ebvU3kbu0EoBxrBKAcQckXL+W6IM0diDWlHLkN8SpS6Q/fDWG9qygHyxUeOWvn3Y2VK6r1Q9RRaujyTADKsQoAyhGUfCIyp/biDuEwpZSKuMJz4dhmucITt48icwuRsUOLfGcCWbQQ65e5AZS1NjMGZR2aDjEqK8AMDkrhCZEKmduFzMsVnrjVEDfavVWbASjH6gAoR1Dy8QP9URnH0wtJZp2VgfCw2q/YvssurbL48eOHS/q4aeK6CTkNGLJGLm5JA3MDKEeAAOUIytpYmEtdlkV/dFF/aZ7+1R89O/vOGMcbu1Uy61oVRunUDd+qD40eD8nfz1fbnqpIM7G1LXkvzjZzvnwb/tSxCgDKEZTVA5ouVX6B9KuV/tlqmsbviRbHm7w8GYTHpQo+rMdjrdTowpPBc9QA5WL9+pNOf1zi1/+wKCs9qdDms9vmqLXu39AHr6ViZdDErIjWlb81X1uVKc9bJ24dl/S8H0fduoT78UJ7PO/xpyFW4l6FSVMClCNegHIEZV1ZQOPSpDp1XVs7NPKr8xm0Mis66yBKSGGtwnPVqAyEJ2F8GmIlVlt8/0H4U0fmABUCSgsPvcvgsOEwH3qY3vHebpUMwuNSHRhq+/Y1ufB+sQv0N6SBP3WEDFAhoKqqooclXVREfvnX5SzHO7xJMgiPS0V8mPDIV+YFPsIW3UpcoL8hDUA5QgYoR1DWtdQ07OD4Fbh1XeWHfC58Dt+x7KeS0agjwQlcdM66iTpbDLWdqpTQxFadiD4VnEEUBlCOpgZQIaDIt57yg9KTXvjyMcfiuyeTpYPwSHof1uOBm5BVaD0CUFYs8iBASSbWI1ZQWnjORn6yl6mUer1e1ut+3EEIj0uVQXjynOOxuomzDsI0IGuG6BqaiPR2UaC08JwdK7M+2382E0n+JkcgPC4VAeGB8LjYSfynE5yumj6RVSeg0BK8FZQWHo8vuclHgkKYy7u98AiExwX+hwkP1iC5VOrbnovMoMcDiwqxKL20Z1kWx0womdU7ewgYZXifDatCh7QUK6tTk2oR4eA5HprXjP/KnBAriVjHIVnBnzrSA6gQUN5rSq3ONI9vMEJ4XCwKPZ48h9rgT12sH11DR0pboLzXa9HTP1/xYxUUQboXJHVKCI8LYQiPRXgyiLzeIzwAJduY1e/kCspbeKyUlFIeo3ayCq49Yi1ayCCKtXd41QL0QofarOthQqYlrVZy1fhpxAYDUI4wAcoR1Na72vxcqrXd5fFpQblY3FueddVYhef5fLpXXMSUhQqP1fpDhMfa5c9AeADKvbHFXWFVlEV5u9SMhcc62OAnz9qGpX1eqNAQnq/B4RDhsUYTeayukfYKUFY1AigrFnnQ2lj8XCqER+LdOmK1z6vGJMsVHqv1e3c84+a2ZTqXHI9btLi5XQJk66JxixY3t617vuS4tWgQHlkXVqmQyRyPxM3N8aJbycoVHutQRkThyWOGc11XgNpqPOw4QDEgW7v0+YOv0YaqgvBIXHGlIm5u8m5PHSlXeKyddG/huVWlnrKAw8QAdYhIJwAoR1ARp82tzC+cunAk4JhMdg29R7mti1/8xN7x5veTlSs81tezey8ulMJzYaXuV/nZXwHKkRhAOYKa59ns6+htP5dqFZ5sBhusXcN5nh05m8msSxUuXP1UrvBY12t514QUHu+sTHO5yXbE0kXM6iZwzNuIWLqIWZl3eJNtWTo/4ZF9Au+XINyEjHkb1lDGb1QmYlbmHXpvFy080mr9HtCzRhN+gYl3RSY9EaAc8QKUIyj5lbOIwuPXih3v/M3JpEL7jcrIrqEf8FjFL1p4hmFgXX6/yoiVT6xKjZ5PrALGyid6AWNlGKuAsfKJVa7o+VhH2zxiean0VVX5ueboZYySoVyx4vfdh1j5RCnUuq5FC48cbfMTHhm+5TTOpk2NRV4AtdUCAWqLDDsuNcPjuTdGO6dxNo1LDpH5TR5LUNM0sRp5527pwiM1w6M+WKVmM7dpGiJAmTR2tgFqB475k1zbdjaWt3abzmZi3tI9t5lCe8R8ckmbn3pF5FO68MgqOWu44TlErM50WYUXMzyHdKWLmHN4McNziFicpFkFulTrvMVVj+KnAyUV+mzXMDyH6KUrXXjWdWUh6tmAgi15zOmr78zaAIoB2doFqC0y7HigQ2QjDZnN7pismEKfXT0ReLp5J7G2ITzr6/ViFuw+QyOD05wmNpmRARQDsrULUFtk5HE26e0et8nuzll3LG/mtkfkTI/7jABTd6XUHRbcQnh+Gtvj8WDL2xzr9YahRNLGA1COeAHKEZQM3VzGup/PJwsWL5+0cCyvdzK/kRWJ1z2q9r5VlxMhPL8pyXo9XNzJRlSyN31NCqBc2tW6rgDlCEqG8/vaI1XnJlG8Y3m9k7Ew99DhvF4vdso+WO8b8zgRwvMFTXqKrXGzZVlYjdZ1nd+s5hea71sA9Z3H5h5AbaL5/sM4jrIHYx116Ptepny9Xt/zy3aPjUzWdW2ltK7rNE0M1H1UB8/xcAO1NoBhGJ5//qZpatv2zjXKi5RmH6AcuQKUI6jn88mCOf1QTtu2fd+3bVvXNWt3VVXdypk6ljQwWdd1jEPTNOM4/nFRz3EcmT4ppW4ywkZlR4+HUPzeeL1eUlrYDBDt1nX9eDx4FmXsA5RjPQOUI6h1XWWHhtoa2yi56c3zzKSFwaFdpVTTNHdYTcBsAMLDgPzeXZZlGAZrkKV+/bVtu9XJteeY6VGAcqxYgHIEta7rftPTAb57brmmnOdZ935YB0j3FJVSXdfddvwfwnNsltSH1Ru3rcvjkiROAVCOgAEKoBwJOCZjFuV41oXJIDwXwselQQAEQKBEAhCeEmsdZQYBEACBCwlAeC6Ej0uDAAiAQIkEIDwl1jrKDAIgAAIXEoDwXAgflwYBEACBEglAeEqsdZQZBEAABC4kcAvh+ctf/jLF+LuQIy4NAiAAAiUQ+Mc//hHurf/2t7/RU64/fvzw5lZ5nEkXjrXxT//0T//7v//rcSc4BQRAAARA4JDAX//611jumvL5eOGpquo//uM/DtkhAQiAAAiAgAeBf/7nfybBiLWRg/DgNTYexoRTQAAEQMCFwI8fP2LpDeXzbuH5/3sncf8wzuZiOkgDAiAAAt4E/va3v8X12//93//tfTM+czzeF8OJIAACIAACIADhgQ2AAAiAAAi8lQCE5624cTEQAAEQAAEID2wABEAABEDgrQQgPG/FjYuBAAiAAAj8f2emkSyweq3kAAAAAElFTkSuQmCC;" vertex="1" parent="1">
          <mxGeometry x="900" y="210" width="262" height="251.56" as="geometry" />
        </mxCell>
        <mxCell id="aOvd2PtyTL2-4zrxU_VH-38" value="" style="shape=singleArrow;whiteSpace=wrap;html=1;arrowWidth=0.3851548737170617;arrowSize=0.33873998305376746;fillColor=#f8cecc;strokeColor=#b85450;" vertex="1" parent="1">
          <mxGeometry x="720" y="306" width="100" height="60" as="geometry" />
        </mxCell>
        <mxCell id="aOvd2PtyTL2-4zrxU_VH-39" value="&lt;font style=&quot;font-size: 20px;&quot;&gt;V1&lt;/font&gt;" style="text;html=1;align=center;verticalAlign=middle;resizable=0;points=[];autosize=1;strokeColor=none;fillColor=none;" vertex="1" parent="1">
          <mxGeometry x="911" y="175" width="50" height="40" as="geometry" />
        </mxCell>
        <mxCell id="aOvd2PtyTL2-4zrxU_VH-40" value="&lt;span style=&quot;color: rgb(0, 0, 0); font-family: Helvetica; font-size: 20px; font-style: normal; font-variant-ligatures: normal; font-variant-caps: normal; font-weight: 400; letter-spacing: normal; orphans: 2; text-align: center; text-indent: 0px; text-transform: none; widows: 2; word-spacing: 0px; -webkit-text-stroke-width: 0px; white-space: nowrap; background-color: rgb(251, 251, 251); text-decoration-thickness: initial; text-decoration-style: initial; text-decoration-color: initial; display: inline !important; float: none;&quot;&gt;V1&lt;/span&gt;" style="text;whiteSpace=wrap;html=1;" vertex="1" parent="1">
          <mxGeometry x="870" y="215" width="60" height="50" as="geometry" />
        </mxCell>
        <mxCell id="aOvd2PtyTL2-4zrxU_VH-41" value="&lt;span style=&quot;color: rgb(0, 0, 0); font-family: Helvetica; font-size: 20px; font-style: normal; font-variant-ligatures: normal; font-variant-caps: normal; font-weight: 400; letter-spacing: normal; orphans: 2; text-align: center; text-indent: 0px; text-transform: none; widows: 2; word-spacing: 0px; -webkit-text-stroke-width: 0px; white-space: nowrap; background-color: rgb(251, 251, 251); text-decoration-thickness: initial; text-decoration-style: initial; text-decoration-color: initial; display: inline !important; float: none;&quot;&gt;V2&lt;/span&gt;" style="text;whiteSpace=wrap;html=1;" vertex="1" parent="1">
          <mxGeometry x="969" y="176" width="31" height="50" as="geometry" />
        </mxCell>
        <mxCell id="aOvd2PtyTL2-4zrxU_VH-42" value="&lt;span style=&quot;color: rgb(0, 0, 0); font-family: Helvetica; font-size: 20px; font-style: normal; font-variant-ligatures: normal; font-variant-caps: normal; font-weight: 400; letter-spacing: normal; orphans: 2; text-align: center; text-indent: 0px; text-transform: none; widows: 2; word-spacing: 0px; -webkit-text-stroke-width: 0px; white-space: nowrap; background-color: rgb(251, 251, 251); text-decoration-thickness: initial; text-decoration-style: initial; text-decoration-color: initial; display: inline !important; float: none;&quot;&gt;V3&lt;/span&gt;" style="text;whiteSpace=wrap;html=1;" vertex="1" parent="1">
          <mxGeometry x="1015.5" y="176" width="31" height="50" as="geometry" />
        </mxCell>
        <mxCell id="aOvd2PtyTL2-4zrxU_VH-43" value="&lt;span style=&quot;color: rgb(0, 0, 0); font-family: Helvetica; font-size: 20px; font-style: normal; font-variant-ligatures: normal; font-variant-caps: normal; font-weight: 400; letter-spacing: normal; orphans: 2; text-align: center; text-indent: 0px; text-transform: none; widows: 2; word-spacing: 0px; -webkit-text-stroke-width: 0px; white-space: nowrap; background-color: rgb(251, 251, 251); text-decoration-thickness: initial; text-decoration-style: initial; text-decoration-color: initial; display: inline !important; float: none;&quot;&gt;V4&lt;/span&gt;" style="text;whiteSpace=wrap;html=1;" vertex="1" parent="1">
          <mxGeometry x="1060" y="176" width="31" height="50" as="geometry" />
        </mxCell>
        <mxCell id="aOvd2PtyTL2-4zrxU_VH-44" value="&lt;span style=&quot;color: rgb(0, 0, 0); font-family: Helvetica; font-size: 20px; font-style: normal; font-variant-ligatures: normal; font-variant-caps: normal; font-weight: 400; letter-spacing: normal; orphans: 2; text-align: center; text-indent: 0px; text-transform: none; widows: 2; word-spacing: 0px; -webkit-text-stroke-width: 0px; white-space: nowrap; background-color: rgb(251, 251, 251); text-decoration-thickness: initial; text-decoration-style: initial; text-decoration-color: initial; display: inline !important; float: none;&quot;&gt;V5&lt;/span&gt;" style="text;whiteSpace=wrap;html=1;" vertex="1" parent="1">
          <mxGeometry x="1109" y="177" width="31" height="50" as="geometry" />
        </mxCell>
        <mxCell id="aOvd2PtyTL2-4zrxU_VH-45" value="&lt;span style=&quot;color: rgb(0, 0, 0); font-family: Helvetica; font-size: 20px; font-style: normal; font-variant-ligatures: normal; font-variant-caps: normal; font-weight: 400; letter-spacing: normal; orphans: 2; text-align: center; text-indent: 0px; text-transform: none; widows: 2; word-spacing: 0px; -webkit-text-stroke-width: 0px; white-space: nowrap; background-color: rgb(251, 251, 251); text-decoration-thickness: initial; text-decoration-style: initial; text-decoration-color: initial; display: inline !important; float: none;&quot;&gt;V2&lt;/span&gt;" style="text;whiteSpace=wrap;html=1;" vertex="1" parent="1">
          <mxGeometry x="869" y="268" width="31" height="50" as="geometry" />
        </mxCell>
        <mxCell id="aOvd2PtyTL2-4zrxU_VH-46" value="&lt;span style=&quot;color: rgb(0, 0, 0); font-family: Helvetica; font-size: 20px; font-style: normal; font-variant-ligatures: normal; font-variant-caps: normal; font-weight: 400; letter-spacing: normal; orphans: 2; text-align: center; text-indent: 0px; text-transform: none; widows: 2; word-spacing: 0px; -webkit-text-stroke-width: 0px; white-space: nowrap; background-color: rgb(251, 251, 251); text-decoration-thickness: initial; text-decoration-style: initial; text-decoration-color: initial; display: inline !important; float: none;&quot;&gt;V3&lt;/span&gt;" style="text;whiteSpace=wrap;html=1;" vertex="1" parent="1">
          <mxGeometry x="869" y="319" width="31" height="50" as="geometry" />
        </mxCell>
        <mxCell id="aOvd2PtyTL2-4zrxU_VH-47" value="&lt;span style=&quot;color: rgb(0, 0, 0); font-family: Helvetica; font-size: 20px; font-style: normal; font-variant-ligatures: normal; font-variant-caps: normal; font-weight: 400; letter-spacing: normal; orphans: 2; text-align: center; text-indent: 0px; text-transform: none; widows: 2; word-spacing: 0px; -webkit-text-stroke-width: 0px; white-space: nowrap; background-color: rgb(251, 251, 251); text-decoration-thickness: initial; text-decoration-style: initial; text-decoration-color: initial; display: inline !important; float: none;&quot;&gt;V4&lt;/span&gt;" style="text;whiteSpace=wrap;html=1;" vertex="1" parent="1">
          <mxGeometry x="869" y="372" width="31" height="50" as="geometry" />
        </mxCell>
        <mxCell id="aOvd2PtyTL2-4zrxU_VH-48" value="&lt;span style=&quot;color: rgb(0, 0, 0); font-family: Helvetica; font-size: 20px; font-style: normal; font-variant-ligatures: normal; font-variant-caps: normal; font-weight: 400; letter-spacing: normal; orphans: 2; text-align: center; text-indent: 0px; text-transform: none; widows: 2; word-spacing: 0px; -webkit-text-stroke-width: 0px; white-space: nowrap; background-color: rgb(251, 251, 251); text-decoration-thickness: initial; text-decoration-style: initial; text-decoration-color: initial; display: inline !important; float: none;&quot;&gt;V5&lt;/span&gt;" style="text;whiteSpace=wrap;html=1;" vertex="1" parent="1">
          <mxGeometry x="870" y="422" width="31" height="50" as="geometry" />
        </mxCell>
        <mxCell id="aOvd2PtyTL2-4zrxU_VH-49" value="" style="rounded=0;whiteSpace=wrap;html=1;fillColor=none;strokeWidth=3;strokeColor=#00CC00;" vertex="1" parent="1">
          <mxGeometry x="962" y="214" width="41" height="40" as="geometry" />
        </mxCell>
        <mxCell id="aOvd2PtyTL2-4zrxU_VH-50" value="" style="rounded=0;whiteSpace=wrap;html=1;fillColor=none;strokeWidth=3;strokeColor=#00CC00;" vertex="1" parent="1">
          <mxGeometry x="1008" y="214" width="41" height="40" as="geometry" />
        </mxCell>
        <mxCell id="aOvd2PtyTL2-4zrxU_VH-51" value="" style="rounded=0;whiteSpace=wrap;html=1;fillColor=none;strokeWidth=3;strokeColor=#FF3399;" vertex="1" parent="1">
          <mxGeometry x="1008" y="265" width="41" height="40" as="geometry" />
        </mxCell>
        <mxCell id="aOvd2PtyTL2-4zrxU_VH-52" value="" style="rounded=0;whiteSpace=wrap;html=1;fillColor=none;strokeWidth=3;strokeColor=#FF3399;" vertex="1" parent="1">
          <mxGeometry x="1057" y="265" width="41" height="40" as="geometry" />
        </mxCell>
        <mxCell id="aOvd2PtyTL2-4zrxU_VH-53" value="" style="rounded=0;whiteSpace=wrap;html=1;fillColor=none;strokeWidth=3;strokeColor=#3399FF;" vertex="1" parent="1">
          <mxGeometry x="1057" y="316" width="41" height="40" as="geometry" />
        </mxCell>
        <mxCell id="aOvd2PtyTL2-4zrxU_VH-54" value="" style="rounded=0;whiteSpace=wrap;html=1;fillColor=none;strokeWidth=3;strokeColor=#B266FF;" vertex="1" parent="1">
          <mxGeometry x="1105" y="368" width="41" height="40" as="geometry" />
        </mxCell>
      </root>
    </mxGraphModel>
  </diagram>
</mxfile>
